<?xml version="1.0" encoding="UTF-8" standalone="no"?>
<!DOCTYPE svg PUBLIC "-//W3C//DTD SVG 1.1//EN" "http://www.w3.org/Graphics/SVG/1.1/DTD/svg11.dtd">
<svg width="100%" height="100%" viewBox="0 0 1920 1920" version="1.1" xmlns="http://www.w3.org/2000/svg" xmlns:xlink="http://www.w3.org/1999/xlink" xml:space="preserve" xmlns:serif="http://www.serif.com/" style="fill-rule:evenodd;clip-rule:evenodd;stroke-linecap:round;stroke-linejoin:round;stroke-miterlimit:1.5;">
    <g transform="matrix(1,0,0,1,0,-2133.43)">
        <g transform="matrix(1,0,0,1,0,2133.43)">
            <rect id="color-small-Transparent" serif:id="color small Transparent" x="0" y="0" width="1920" height="1920" style="fill:none;"/>
            <g id="color-small-Transparent1" serif:id="color small Transparent">
                <g transform="matrix(1.20941,0,0,1.20941,-201.037,-201.037)">
                    <g transform="matrix(1,0,0,1,-2.27374e-13,122.939)">
                        <path d="M512.347,1424.12L512.347,497.046C512.347,360.698 712.933,250 960,250C1207.07,250 1407.65,360.698 1407.65,497.046L1407.65,1424.12C1285.47,1379.75 1129.64,1353.14 960,1353.14C790.355,1353.14 634.526,1379.75 512.347,1424.12Z" style="fill:rgb(163,164,192);stroke:rgb(163,164,192);stroke-width:16.54px;"/>
                    </g>
                    <g transform="matrix(0.909184,0,0,0.909184,87.1834,198.957)">
                        <path d="M512.347,1424.12L512.347,497.046C512.347,360.698 712.933,250 960,250C1207.07,250 1407.65,360.698 1407.65,497.046L1407.65,1424.12C1285.47,1379.75 1129.64,1353.14 960,1353.14C790.355,1353.14 634.526,1379.75 512.347,1424.12Z" style="fill:none;stroke:rgb(88,95,114);stroke-width:18.19px;"/>
                    </g>
                    <g transform="matrix(1,0,0,1,1.08249,64.0741)">
                        <g transform="matrix(1,0,0,1,0,396.182)">
                            <path d="M631.895,374.141L649.227,368.587L665.523,419.439L706.853,406.195L718.372,367.43L715.225,366.128L710.819,380.561L690.059,387.214L651.973,268.368L683.662,284.675L692.423,265.486L659.104,248.021L628.597,304.212L636.47,328.781L624.632,351.476L641.964,345.922L643.551,350.874L631.895,374.141ZM687.012,388.191L681.108,390.083L645.585,279.236L649.597,271.439L687.012,388.191Z" style="fill:rgb(88,95,114);fill-rule:nonzero;"/>
                            <path d="M741.531,396.376L762.353,392.392L776.658,370.31L780.229,388.972L800.069,385.175L808.844,362.93L796.665,365.26L782.72,292.382L755.31,272.581L725.301,310.496L746.32,306.474L743.351,290.956L761.671,304.759L731.645,344.714L741.531,396.376ZM776.591,368.898L758.912,372.28L750.004,325.725L764.638,306.431L776.591,368.898Z" style="fill:rgb(88,95,114);fill-rule:nonzero;"/>
                            <path d="M819.906,382.097L841.97,379.642L851.376,357.466L839.052,358.837L831.645,292.248L843.15,279.9L846.622,311.108L864.443,292.222L860.552,257.238L831.181,288.074L828.24,261.637L809.138,285.294L819.906,382.097Z" style="fill:rgb(88,95,114);fill-rule:nonzero;"/>
                            <path d="M884.399,375.422L910.166,374.103L923.913,353.172L904.938,354.144L900.94,276.046L921.837,253.949L899.866,255.074L898.22,222.916L877.64,243.395L884.399,375.422Z" style="fill:rgb(88,95,114);fill-rule:nonzero;"/>
                            <path d="M932.655,372.851L956.455,372.923L993.966,336.437L994.147,276.837L967.617,253.956L932.91,288.851L932.655,372.851ZM972.914,353.373L954.314,353.316L954.563,271.517L973.116,287.173L972.914,353.373Z" style="fill:rgb(88,95,114);fill-rule:nonzero;"/>
                            <path d="M1010.07,373.66L1033.8,375.502L1073.92,341.907L1078.53,282.485L1053.77,257.695L1016.57,289.912L1010.07,373.66ZM1051.66,357.23L1033.12,355.79L1039.45,274.236L1056.79,291.229L1051.66,357.23Z" style="fill:rgb(88,95,114);fill-rule:nonzero;"/>
                            <path d="M1087.62,378.992L1109.03,383.089L1126.32,292.729L1135.99,285.823L1143.61,297.056L1126.51,386.434L1147.92,390.532L1165.93,296.439L1173.93,291.861L1182.24,304.854L1165.21,393.839L1185.84,397.786L1202.16,379.528L1190.37,377.273L1205.26,299.484L1191.58,277.319L1166.68,292.51L1152.92,269.717L1126.95,288.369L1131.2,266.172L1106.11,282.346L1087.62,378.992Z" style="fill:rgb(88,95,114);fill-rule:nonzero;"/>
                            <path d="M1205.07,403.357L1227.48,410.754L1273.83,387.089L1293.2,328.402L1277.63,301.569L1259.68,305.544L1276.85,253.505L1251.39,263.004L1205.07,403.357ZM1248.44,397.03L1231.35,391.389L1258.3,309.722L1270.44,330.367L1248.44,397.03Z" style="fill:rgb(88,95,114);fill-rule:nonzero;"/>
                        </g>
                        <g transform="matrix(1,0,0,1,2.43876,529.897)">
                            <path d="M789.061,386.676L810.707,383.43L822.207,367.873L819.239,348.078L796.477,331.252L793.466,311.172L805.193,319.461L813.375,307.022L800.096,298.093L779.645,323.874L782.036,339.824L804.713,356.081L808.386,380.575L785.858,365.315L789.061,386.676Z" style="fill:rgb(88,95,114);fill-rule:nonzero;"/>
                            <path d="M838.61,379.673L857.094,377.829L866.254,362.3L852.641,363.657L847.052,307.631L861.313,291.014L845.552,292.586L843.25,269.517L829.162,284.959L838.61,379.673Z" style="fill:rgb(88,95,114);fill-rule:nonzero;"/>
                            <path d="M875.973,375.825L891.217,375.032L905.416,362.47L906.029,374.262L922.566,373.402L929.978,357.876L920.343,358.377L916.679,287.912L902.099,304.243L904.956,359.177L890.719,359.918L887.055,289.453L872.332,305.791L875.973,375.825Z" style="fill:rgb(88,95,114);fill-rule:nonzero;"/>
                            <path d="M938.921,372.856L953.753,372.909L967.043,361.149L967.001,372.957L983.417,373.016L989.086,358.204L980.158,358.172L980.53,254.348L966.945,268.124L966.85,294.476L954.636,287.232L939.168,304.024L938.921,372.856ZM954.236,358.799L954.408,310.847L966.843,296.636L966.62,358.843L954.236,358.799Z" style="fill:rgb(88,95,114);fill-rule:nonzero;"/>
                            <path d="M1001.13,286.891L1017.27,274.368L1018.12,255.668L1001.94,269.054L1001.13,286.891ZM1013.41,358.664L1016.63,288.321L1000.46,301.42L997.165,373.489L1012.41,374.186L1023.48,359.125L1013.41,358.664Z" style="fill:rgb(88,95,114);fill-rule:nonzero;"/>
                            <path d="M1030.95,375.006L1048.02,376.49L1077.13,352.569L1080.85,309.818L1063.19,291.805L1036.18,314.754L1030.95,375.006ZM1061.01,363.454L1047.66,362.294L1052.76,303.619L1065.13,315.969L1061.01,363.454Z" style="fill:rgb(88,95,114);fill-rule:nonzero;"/>
                            <path d="M1089.33,380.579L1111,383.68L1126.48,372.077L1129.32,352.263L1112.34,329.613L1115.22,309.514L1124.07,320.819L1135.48,311.25L1125.32,298.886L1098.33,317.716L1096.05,333.681L1113.11,355.761L1109.6,380.279L1092.39,359.197L1089.33,380.579Z" style="fill:rgb(88,95,114);fill-rule:nonzero;"/>
                        </g>
                    </g>
                </g>
            </g>
        </g>
    </g>
</svg>
