<?xml version="1.0" encoding="UTF-8" standalone="no"?>
<!DOCTYPE svg PUBLIC "-//W3C//DTD SVG 1.1//EN" "http://www.w3.org/Graphics/SVG/1.1/DTD/svg11.dtd">
<svg width="100%" height="100%" viewBox="0 0 1920 1920" version="1.1" xmlns="http://www.w3.org/2000/svg" xmlns:xlink="http://www.w3.org/1999/xlink" xml:space="preserve" xmlns:serif="http://www.serif.com/" style="fill-rule:evenodd;clip-rule:evenodd;stroke-linejoin:round;stroke-miterlimit:2;">
    <g transform="matrix(1,0,0,1,-12289,-1985)">
        <g id="ecoBorg_icon_2" transform="matrix(1,0,0,1,12289,1985)">
            <rect x="0" y="0" width="1920" height="1920" style="fill:none;"/>
            <g transform="matrix(4.01073,0,0,4.01073,-2433.24,-2890.3)">
                <g transform="matrix(-0.654145,0,0,0.654145,1093.28,683.859)">
                    <path d="M279.513,389.728C272.808,377.985 287.11,373.45 298.269,371.216C346.714,370.726 366.01,435.582 365.589,473.306C364.564,565.173 299.785,639.23 223.167,687.785C268.016,713.559 319.995,728.303 375.391,728.303C470.196,728.303 554.995,685.118 611.172,617.363C582.907,494.579 492.433,347.488 399.599,315.827C357.638,301.516 284.329,303.198 267.989,355.613C264.582,366.54 265.204,386.022 279.035,389.91L279.513,389.728ZM279.513,389.728C279.576,389.839 279.642,389.952 279.71,390.065C279.916,389.857 280.5,389.77 280.37,389.4L279.513,389.728Z" style="fill:rgb(33,54,67);"/>
                </g>
                <g transform="matrix(1.40249,0,0,1.40249,-5598.68,-2854.77)">
                    <path d="M4451.2,2720C4451.2,2799.6 4515.6,2864 4595.2,2864C4674.8,2864 4739.2,2799.6 4739.2,2720C4739.2,2640.4 4674.8,2576 4595.2,2576C4515.6,2576 4451.2,2640.4 4451.2,2720ZM4518,2797.2C4498,2777.6 4486,2750 4486,2720C4486,2690 4498,2662.4 4518,2642.8C4537.6,2622.8 4565.2,2610.8 4595.2,2610.8C4625.2,2610.8 4652.8,2622.8 4672.4,2642.8C4692.4,2662.4 4704.4,2690 4704.4,2720C4704.4,2750 4692.4,2777.6 4672.4,2797.2C4652.8,2817.2 4625.2,2829.2 4595.2,2829.2C4565.2,2829.2 4537.6,2817.2 4518,2797.2Z" style="fill:rgb(33,54,67);fill-rule:nonzero;"/>
                </g>
            </g>
        </g>
    </g>
</svg>
