<?xml version="1.0" encoding="UTF-8"?>
<!-- Generated by Pixelmator Pro 2.4.3 -->
<svg width="1920" height="1920" viewBox="0 0 1920 1920" xmlns="http://www.w3.org/2000/svg" xmlns:xlink="http://www.w3.org/1999/xlink">
    <path id="Ellipse-copy-3" fill="none" stroke="#000000" stroke-width="55" stroke-linecap="round" stroke-linejoin="round" d="M 1449.245972 498.480835 C 1367.031982 403.006714 1268.422363 333.156128 1139.372803 292.636108 C 770.659851 176.864624 377.907593 381.914185 262.136108 750.627075 C 146.364594 1119.340088 351.414215 1512.092407 720.127197 1627.863892 C 1088.84021 1743.635376 1481.592407 1538.585693 1597.363892 1169.872803"/>
    <path id="W-copy-3" fill="#000000" fill-rule="evenodd" stroke="none" d="M 1786.768677 609.573608 C 1797.136719 609.573608 1806.364136 612.787842 1814.451416 619.21582 C 1822.538452 625.644165 1826.613892 640.461548 1820.000122 651 C 1800.723511 681.715576 1574.922607 763.828979 1395 995 C 1325.548706 1084.233398 1243.988892 1318.818359 1243.988892 1318.818359 C 1241.500488 1326.283447 1236.938599 1332.089478 1230.303101 1336.236694 C 1223.66748 1340.383911 1217.032227 1342.561157 1210.396484 1342.768555 C 1202.516846 1342.768555 1195.15564 1340.954224 1188.312622 1337.325317 C 1181.469727 1333.696533 1176.493164 1327.734985 1173.38269 1319.440552 L 1020.448425 952.97821 L 1020.448425 952.97821 L 806.213867 1486.440552 C 802.481323 1494.734985 797.193665 1500.696533 790.350769 1504.325317 C 783.507813 1507.954224 776.146667 1509.768555 768.266907 1509.768555 C 761.838684 1509.561157 755.410583 1507.383911 748.982422 1503.236694 C 742.554138 1499.089478 738.095947 1493.283447 735.607666 1485.818359 C 735.607666 1485.818359 648.044434 1232.241699 604.262817 1105.453247 C 556.391174 966.820435 258.504944 1131.858398 236.426956 1162.074219 C 232.71225 1167.158081 233.627609 1151.187744 233.627609 1147.455322 C 233.627609 1135.013672 232.26265 1129.492676 233.417831 1121.520142 C 243.977325 1048.64209 619.706177 907.826172 677.22229 1076.078491 C 712.970703 1180.653809 779.674255 1374.333008 779.674255 1374.333008 L 779.674255 1374.333008 L 987.239319 850.362793 C 990.142456 842.897827 994.704285 836.988037 1000.925171 832.633545 C 1007.145996 828.278809 1014.403442 826.205322 1022.697998 826.41272 C 1030.370239 826.205322 1037.47229 828.278809 1044.00415 832.633545 C 1050.536011 836.988037 1055.14978 842.897827 1057.845459 850.362793 L 1201.2323 1205.828247 L 1201.2323 1205.828247 C 1201.2323 1205.828247 1280.984009 1011.634094 1372 915 C 1573.658081 700.894165 1756.805176 620.200806 1763.440674 615.949951 C 1770.076294 611.698975 1777.852051 609.573608 1786.768677 609.573608 Z"/>
</svg>
